<svg xmlns="http://www.w3.org/2000/svg" 
	xmlns:xlink="http://www.w3.org/1999/xlink" version="1.1" x="0px" y="0px" viewBox="0 0 141.7 177.125" style="enable-background:new 0 0 141.7 141.7;" xml:space="preserve">
	<style type="text/css">
	.st0{fill:#030303;}
	</style>
	<path class="st0" d="M76.9,101.7c-4.7,0-8.5-3.8-8.5-8.5V48.9c0-4.7,3.8-8.5,8.5-8.5c1.5,0,3,0.9,5.5,3.4  c4.7,4.7,18.1,21.9,18.1,27.2c0.1,4.5-13.2,22.2-18.4,27.4C79.8,100.8,78.3,101.7,76.9,101.7z M76.5,46.1c-1.4,0.2-2.4,1.4-2.4,2.8  v44.3c0,1.4,1,2.6,2.4,2.8c3.7-2.5,17.6-21.5,18.4-25.2C94.3,67.5,80.4,48.6,76.5,46.1z"/>
	<path class="st0" d="M52.6,101.7h-2.2c-5.1,0-9.2-4.1-9.2-9.2V49.7c0-5.1,4.1-9.2,9.2-9.2h2.2c5.1,0,9.2,4.1,9.2,9.2  v42.8C61.9,97.6,57.7,101.7,52.6,101.7z M50.4,46.2c-1.9,0-3.4,1.5-3.4,3.4v42.8c0,1.9,1.5,3.4,3.4,3.4h2.2c1.9,0,3.4-1.5,3.4-3.4  V49.7c0-1.9-1.5-3.4-3.4-3.4H50.4z"/>
</svg>