<svg xmlns="http://www.w3.org/2000/svg" 
	xmlns:xlink="http://www.w3.org/1999/xlink" version="1.1" x="0px" y="0px" viewBox="0 0 141.7 177.125" style="enable-background:new 0 0 141.7 141.7;" xml:space="preserve">
	<style type="text/css">
	.st0{fill:white;}
	</style>
	<path class="st0" d="M57.5,103.6h-2.2c-4.9,0-9-4-9-9V47.9c0-4.9,4-9,9-9h2.2c4.9,0,9,4,9,9v46.7
	   C66.4,99.6,62.4,103.6,57.5,103.6z M55.3,44.6c-1.8,0-3.3,1.5-3.3,3.3v46.7c0,1.8,1.5,3.3,3.3,3.3h2.2c1.8,0,3.3-1.5,3.3-3.3V47.9 
	   c0-1.8-1.5-3.3-3.3-3.3H55.3z"/>
	<path class="st0" d="M87.4,103.6h-2.2c-4.9,0-9-4-9-9V47.9c0-4.9,4-9,9-9h2.2c4.9,0,9,4,9,9v46.7 
	   C96.4,99.6,92.4,103.6,87.4,103.6z M85.3,44.6c-1.8,0-3.3,1.5-3.3,3.3v46.7c0,1.8,1.5,3.3,3.3,3.3h2.2c1.8,0,3.3-1.5,3.3-3.3V47.9
	   c0-1.8-1.5-3.3-3.3-3.3H85.3z"/>
</svg>