<svg xmlns="http://www.w3.org/2000/svg" 
	xmlns:xlink="http://www.w3.org/1999/xlink" version="1.1" x="0px" y="0px" viewBox="0 0 141.7 177.125" style="enable-background:new 0 0 141.7 141.7;" xml:space="preserve">
	<style type="text/css">
	.st0{fill:#030303;}
	</style>
	<path class="st0" d="M56.6,106.1c-5.1,0-9.3-4.2-9.3-9.3V46.4c0-5.1,4.2-9.3,9.3-9.3c4.6,0,24.8,17.4,31.8,24.5  c5.7,5.8,6.8,8.2,6.8,10c0,1.3-0.4,3.1-6.3,9C83.8,85.9,61.6,106.1,56.6,106.1z M56.4,42.8c-1.9,0.1-3.4,1.7-3.4,3.6v50.4  c0,1.9,1.5,3.5,3.4,3.6c4.4-1.8,30.1-23.7,33.1-28.9C86.9,66.2,61.3,44.6,56.4,42.8z"/>
</svg>