<svg xmlns="http://www.w3.org/2000/svg" xmlns:xlink="http://www.w3.org/1999/xlink" version="1.1" x="0px" y="0px" viewBox="0 0 141.7 177.125" style="enable-background:new 0 0 141.7 141.7;" xml:space="preserve"><style type="text/css">
	.st0{fill:#030303;}
</style><path class="st0" d="M65.3,41c4.7,0,8.5,3.8,8.5,8.5v44.3c0,4.7-3.8,8.5-8.5,8.5c-1.5,0-3-0.9-5.5-3.4  c-4.7-4.7-18.1-21.9-18.1-27.2c-0.1-4.5,13.2-22.2,18.4-27.4C62.3,41.8,63.8,41,65.3,41z M65.7,96.6c1.4-0.2,2.4-1.4,2.4-2.8V49.5  c0-1.4-1-2.6-2.4-2.8C62,49.2,48.1,68.1,47.3,71.8C47.8,75.1,61.7,94,65.7,96.6z"/><path class="st0" d="M89.5,41h2.2c5.1,0,9.2,4.1,9.2,9.2V93c0,5.1-4.1,9.2-9.2,9.2h-2.2c-5.1,0-9.2-4.1-9.2-9.2V50.2  C80.3,45.1,84.4,41,89.5,41z M91.7,96.4c1.9,0,3.4-1.5,3.4-3.4V50.2c0-1.9-1.5-3.4-3.4-3.4h-2.2c-1.9,0-3.4,1.5-3.4,3.4V93  c0,1.9,1.5,3.4,3.4,3.4H91.7z"/><text x="0" y="156.7" fill="#000000" font-size="5px" font-weight="bold" font-family="'Helvetica Neue', Helvetica, Arial-Unicode, Arial, Sans-serif">Created by Ewa Śniecińska</text><text x="0" y="161.7" fill="#000000" font-size="5px" font-weight="bold" font-family="'Helvetica Neue', Helvetica, Arial-Unicode, Arial, Sans-serif">from the Noun Project</text></svg>