<svg xmlns="http://www.w3.org/2000/svg" 
	xmlns:xlink="http://www.w3.org/1999/xlink" version="1.1" x="0px" y="0px" viewBox="0 0 32 40" style="enable-background:new 0 0 32 32;" xml:space="preserve">
	<style type="text/css">
	.st0{clip-path:url(#SVGID_2_);}
	.st1{clip-path:url(#SVGID_4_);}
	</style>
	<g>
		<g>
			<path d="M13.7197266,28.5c-0.2558594,0-0.5117188-0.0976563-0.7070313-0.2929688l-2.5273438-2.5273438    c-0.1875-0.1875-0.2929688-0.4418945-0.2929688-0.7070313s0.1054688-0.5195313,0.2929688-0.7070313l2.5273438-2.5268555    c0.390625-0.390625,1.0234375-0.390625,1.4140625,0s0.390625,1.0239258,0,1.4140625l-1.8203125,1.8198242l1.8203125,1.8203125    c0.390625,0.390625,0.390625,1.0234375,0,1.4140625C14.2314453,28.4023438,13.9755859,28.5,13.7197266,28.5z"/>
		</g>
		<g>
			<path d="M20.8076172,25.9726563h-9.6152344c-0.5527344,0-1-0.4477539-1-1s0.4472656-1,1-1h9.6152344    C24.2216797,23.9726563,27,21.1948242,27,17.7807617c0-1.1806641-0.3330078-2.328125-0.9628906-3.3183594    c-0.296875-0.4658203-0.1591797-1.0839844,0.3066406-1.3803711c0.4677734-0.2963867,1.0849609-0.1591797,1.3808594,0.3071289    C28.5585938,14.7001953,29,16.21875,29,17.7807617C29,22.2978516,25.3251953,25.9726563,20.8076172,25.9726563z"/>
		</g>
		<g>
			<path d="M7.1699219,24.1835938c-0.1923828,0-0.3876953-0.0556641-0.5585938-0.1713867    C4.3496094,22.4838867,3,19.9443359,3,17.2192383c0-4.5170898,3.6748047-8.1918945,8.1923828-8.1918945h2.5273438    c0.5527344,0,1,0.4477539,1,1s-0.4472656,1-1,1h-2.5273438C7.7783203,11.0273438,5,13.8051758,5,17.2192383    c0,2.0600586,1.0205078,3.9799805,2.7304688,5.1357422c0.4580078,0.3095703,0.578125,0.9311523,0.2685547,1.3886719    C7.8066406,24.0292969,7.4912109,24.1835938,7.1699219,24.1835938z"/>
		</g>
		<g>
			<path d="M21,4.5c-2.7614136,0-5,2.2385864-5,5s2.2385864,5,5,5s5-2.2385864,5-5S23.7614136,4.5,21,4.5z M22,11.5    c0,0.5522461-0.4476929,1-1,1s-1-0.4477539-1-1v-4c0-0.5523071,0.4476929-1,1-1s1,0.4476929,1,1V11.5z"/>
		</g>
	</g>
	<text x="0" y="47" fill="#000000" font-size="5px" font-weight="bold" font-family="'Helvetica Neue', Helvetica, Arial-Unicode, Arial, Sans-serif">Created by Royyan Wijaya</text>
	<text x="0" y="52" fill="#000000" font-size="5px" font-weight="bold" font-family="'Helvetica Neue', Helvetica, Arial-Unicode, Arial, Sans-serif">from the Noun Project</text>
</svg>